<?xml version="1.0" encoding="UTF-8"?>
<svg width="100px" height="87px" viewBox="0 0 100 87" version="1.1" xmlns="http://www.w3.org/2000/svg" xmlns:xlink="http://www.w3.org/1999/xlink">
    <!-- Generator: Sketch 48.2 (47327) - http://www.bohemiancoding.com/sketch -->
    <title>Shape</title>
    <desc>Created with Sketch.</desc>
    <defs></defs>
    <g stroke="none" stroke-width="1">
        <path d="M50,0 L0,86.6 L100,86.6 L50,0 Z M33.6,45.7 C35.4,44.5 37.3,43.6 39.3,42.8 C38.9,43.9 38.8,45 38.8,46.2 C38.8,52.4 43.9,57.5 50.1,57.5 C56.3,57.5 61.4,52.4 61.4,46.2 C61.4,45 61.2,43.9 60.9,42.8 C62.9,43.6 64.8,44.5 66.6,45.7 L73,49.9 L66.6,54.1 C61.5,57.3 55.8,58.9 50,58.9 C44.1,58.9 38.5,57.2 33.6,54 L27.2,49.8 L33.6,45.7 Z" id="Shape" fill="#000000" fill-rule="nonzero"></path>
    </g>
</svg>